<?xml version="1.0" encoding="utf-8"?>
<!-- Generator: Adobe Illustrator 24.1.1, SVG Export Plug-In . SVG Version: 6.00 Build 0)  -->
<svg version="1.1" id="Layer_1" xmlns="http://www.w3.org/2000/svg" xmlns:xlink="http://www.w3.org/1999/xlink" x="0px" y="0px"
	 viewBox="0 0 512 512" style="enable-background:new 0 0 512 512;" xml:space="preserve">
<style type="text/css">
	.st0{fill-rule:evenodd;clip-rule:evenodd;}
</style>
<g>
	<path class="st0" d="M0,452.9C0,485.6,26.4,512,59.1,512h315.1c32.6,0,59.1-26.4,59.1-59.1V295.4c0-10.9-8.8-19.7-19.7-19.7
		s-19.7,8.8-19.7,19.7v157.5c0,10.9-8.8,19.7-19.7,19.7H59.1c-10.9,0-19.7-8.8-19.7-19.7V137.9c0-10.9,8.8-19.7,19.7-19.7h157.5
		c10.9,0,19.7-8.8,19.7-19.7s-8.8-19.7-19.7-19.7H59.1C26.4,78.8,0,105.3,0,137.9V452.9z M275.7,19.7c0-10.9,8.8-19.7,19.7-19.7
		h196.9C503.2,0,512,8.8,512,19.7v196.9c0,10.9-8.8,19.7-19.7,19.7s-19.7-8.8-19.7-19.7V39.4H295.4
		C284.5,39.4,275.7,30.6,275.7,19.7z" fill="rgb(146, 220, 220, 1)"
		


		/>
	<path class="st0" d="M506.2,5.8c7.7,7.7,7.7,20.1,0.1,27.8l-0.1,0L191.1,348.7c-7.7,7.7-20.2,7.7-27.9,0s-7.7-20.2,0-27.9
		L478.3,5.8C486-1.9,498.5-1.9,506.2,5.8L506.2,5.8z" fill="rgb(146, 220, 220, 1)"
		/>
</g>
</svg>
